<svg xmlns="http://www.w3.org/2000/svg" width="1024" height="1024" viewBox="0 0 1024 1024">
<g>
<path d="M 428.09 436.00 C427.58,436.00 426.56,436.18 425.83,436.40 C425.10,436.61 422.96,436.43 421.09,435.99 C419.21,435.55 417.09,435.41 416.38,435.68 C415.57,435.99 414.85,435.11 414.46,433.34 C414.12,431.78 413.33,429.45 412.71,428.17 C411.80,426.29 411.47,426.15 411.02,427.43 C410.72,428.30 409.43,416.53 408.17,401.26 C405.25,365.96 405.18,361.49 403.01,359.91 C402.41,359.47 401.65,359.26 400.61,358.67 C398.35,357.38 392.67,353.94 388.00,351.03 C383.33,348.11 373.65,342.14 366.50,337.74 C359.35,333.35 351.63,328.60 349.35,327.20 L 345.21 324.64 L 344.56 316.07 C344.20,311.36 343.66,305.63 343.36,303.35 C342.86,299.62 343.04,299.13 345.15,298.52 C348.07,297.68 388.85,284.64 411.00,277.47 C420.08,274.53 442.58,267.33 461.00,261.47 C479.42,255.61 498.44,249.53 503.25,247.95 L 512.00 245.09 L 535.25 252.45 C587.77,269.07 591.59,270.16 593.10,272.65 C593.30,272.99 593.46,273.35 593.70,273.79 C595.28,276.68 595.31,277.20 594.00,278.08 C592.90,278.82 593.43,278.97 596.00,278.64 C597.92,278.39 600.39,278.53 601.48,278.94 C603.42,279.67 603.41,279.71 601.33,280.83 C600.15,281.45 597.69,282.09 595.85,282.23 C592.56,282.50 590.00,284.02 590.00,285.71 C590.00,286.19 588.12,288.02 585.82,289.79 C581.78,292.89 578.00,293.99 578.00,292.07 C578.00,290.77 574.13,290.31 570.18,291.13 C567.88,291.61 564.69,291.11 559.68,289.48 C532.48,280.61 514.06,275.00 512.14,275.00 C509.79,275.00 494.11,279.83 444.00,295.99 C427.23,301.40 406.86,307.90 398.75,310.45 C390.64,312.99 384.00,315.39 384.01,315.79 C384.01,316.50 386.66,318.13 414.50,334.49 C422.75,339.34 436.02,347.21 444.00,351.99 C451.98,356.76 462.21,362.80 466.75,365.42 C471.29,368.05 475.00,370.62 475.00,371.15 C475.00,371.68 475.45,371.84 476.00,371.50 C476.55,371.16 477.00,371.39 477.00,372.00 C477.00,372.61 477.45,372.84 478.01,372.50 C478.56,372.15 479.28,372.57 479.61,373.43 C479.94,374.29 480.68,374.70 481.26,374.34 C481.84,373.98 482.07,374.10 481.77,374.60 C480.81,376.22 482.92,380.24 484.43,379.66 C486.37,378.92 488.22,381.39 487.83,384.19 C487.58,385.95 485.29,387.69 478.27,391.50 C473.19,394.25 469.03,397.06 469.02,397.75 C469.01,398.44 468.34,399.00 467.52,399.00 C466.71,399.00 464.58,400.68 462.77,402.74 C460.97,404.79 457.40,408.43 454.84,410.82 C452.27,413.21 449.91,416.22 449.59,417.51 C449.26,418.81 448.08,420.16 446.96,420.51 C445.84,420.87 443.21,422.81 441.13,424.83 C433.92,431.80 429.02,436.00 428.09,436.00 ZM 376.40 470.00 C370.94,470.00 369.32,470.42 366.54,472.54 L 363.21 475.08 L 361.18 472.50 C359.40,470.23 359.09,470.14 358.70,471.71 C358.45,472.69 358.44,471.29 358.68,468.59 C358.92,465.89 358.72,463.42 358.24,463.09 C357.75,462.77 356.35,450.12 355.11,435.00 C353.87,419.88 352.24,400.98 351.48,393.00 C350.73,385.02 349.62,372.42 349.02,365.00 C348.43,357.58 347.69,349.81 347.38,347.75 C346.67,342.98 347.58,342.98 354.80,347.79 C357.94,349.88 364.19,353.80 368.69,356.51 L 376.89 361.43 L 377.47 367.46 C377.79,370.78 379.61,392.37 381.50,415.42 C384.04,446.29 384.66,457.70 383.85,458.68 C383.18,459.49 383.00,461.62 383.40,464.08 C383.88,467.10 383.74,467.96 382.85,467.41 C382.04,466.91 381.86,467.20 382.30,468.34 C382.85,469.78 382.09,470.00 376.40,470.00 ZM 510.66 356.25 C506.89,360.49 505.51,360.69 498.59,357.99 C495.90,356.94 493.32,356.30 492.88,356.58 C491.82,357.23 485.87,349.02 486.58,347.88 C486.87,347.39 486.68,347.00 486.14,347.00 C484.21,347.00 482.75,339.74 483.22,332.47 C483.92,321.59 489.56,313.33 499.88,308.06 C512.64,301.55 531.05,307.52 537.66,320.30 C538.49,321.91 538.79,322.99 538.33,322.71 C537.87,322.42 537.50,324.23 537.50,326.72 C537.50,330.31 537.03,331.57 535.25,332.75 C532.65,334.47 532.30,338.17 534.55,340.04 C536.52,341.67 536.03,345.38 533.80,345.80 C532.86,345.98 531.30,345.21 530.34,344.09 C529.05,342.58 528.39,342.36 527.81,343.27 C526.48,345.36 526.89,347.26 528.52,346.63 C529.79,346.14 529.86,346.40 528.93,348.13 C528.11,349.65 527.52,349.92 526.71,349.11 C526.10,348.50 524.58,348.00 523.33,348.00 C520.98,348.00 514.00,350.94 514.00,351.94 C514.00,352.25 512.50,354.19 510.66,356.25 ZM 490.98 354.48 C492.76,356.63 493.25,356.37 491.80,354.05 C491.12,352.97 490.38,352.28 490.15,352.52 C489.91,352.76 490.28,353.64 490.98,354.48 Z" fill="rgb(44,163,184)"/>
<path d="M 428.09 436.00 C429.02,436.00 433.92,431.80 441.13,424.83 C443.21,422.81 445.84,420.87 446.96,420.51 C448.08,420.16 449.26,418.81 449.59,417.51 C449.91,416.22 452.27,413.21 454.84,410.82 C457.40,408.43 460.97,404.79 462.77,402.74 C464.58,400.68 466.71,399.00 467.52,399.00 C468.34,399.00 469.01,398.44 469.02,397.75 C469.03,397.06 473.19,394.25 478.27,391.50 C485.29,387.69 487.58,385.95 487.83,384.19 C488.22,381.39 486.37,378.92 484.43,379.66 C482.92,380.24 480.81,376.22 481.77,374.60 C481.79,374.57 481.80,374.55 481.81,374.53 C485.77,376.65 492.16,380.44 498.75,384.64 L 504.00 387.98 L 503.96 449.74 C503.93,501.40 503.70,511.91 502.50,514.00 C501.71,515.38 501.05,517.93 501.04,519.68 C501.02,521.44 500.57,524.01 500.04,525.40 C499.13,527.78 498.93,527.84 496.37,526.52 C493.95,525.26 493.41,525.32 491.20,527.06 C489.84,528.13 488.17,529.00 487.49,529.00 C486.80,529.00 485.68,529.67 485.00,530.50 C484.25,531.41 482.06,532.00 479.44,532.00 C475.03,532.00 473.34,533.24 473.82,536.12 C474.12,537.97 470.89,539.17 468.92,537.95 C468.20,537.51 466.34,537.30 464.79,537.50 C463.24,537.70 462.20,537.49 462.48,537.03 C462.76,536.58 462.29,535.94 461.44,535.62 C460.46,535.24 460.15,535.43 460.59,536.14 C460.97,536.76 458.54,535.41 455.20,533.13 C451.85,530.86 448.89,529.00 448.61,529.00 C448.34,529.00 448.38,533.72 448.71,539.50 C449.05,545.51 448.92,549.98 448.40,549.95 C447.91,549.92 445.02,547.86 442.00,545.38 C438.98,542.89 432.34,537.46 427.25,533.31 L 418.00 525.76 L 418.00 520.61 C418.00,517.77 417.32,507.14 416.48,496.98 C415.65,486.81 414.30,469.95 413.48,459.50 C412.66,449.05 411.54,436.67 410.98,432.00 C410.11,424.70 407.80,398.50 405.46,369.28 C406.08,375.18 406.82,384.91 408.17,401.26 C409.43,416.53 410.72,428.30 411.02,427.43 C411.47,426.15 411.80,426.29 412.71,428.17 C413.33,429.45 414.12,431.78 414.46,433.34 C414.85,435.11 415.57,435.99 416.38,435.68 C417.09,435.41 419.21,435.55 421.09,435.99 C422.96,436.43 425.10,436.61 425.83,436.40 C426.56,436.18 427.58,436.00 428.09,436.00 ZM 578.52 266.24 C580.97,267.03 583.32,267.78 585.50,268.48 C641.79,286.55 662.79,293.30 671.69,296.19 L 680.89 299.17 L 680.41 303.83 C680.14,306.40 679.53,312.28 679.06,316.91 C678.52,322.07 677.67,325.63 676.84,326.12 C676.10,326.57 673.52,328.14 671.10,329.61 C668.68,331.08 667.02,331.78 667.41,331.15 C668.29,329.72 667.45,329.69 664.93,331.04 C663.87,331.60 662.99,332.62 662.97,333.29 C662.97,333.38 662.97,333.47 662.96,333.55 C662.87,334.67 661.21,335.65 628.00,355.81 C599.43,373.16 579.62,385.01 560.75,396.04 L 548.00 403.50 L 548.00 450.16 C548.00,481.04 548.35,497.01 549.03,497.34 C549.59,497.62 549.48,497.73 548.78,497.59 C547.83,497.40 547.37,493.01 547.00,480.42 C546.57,465.79 546.33,463.88 545.25,466.32 C544.56,467.86 544.00,470.91 544.00,473.08 C544.00,476.91 543.84,477.10 538.38,479.51 C535.28,480.88 532.26,482.00 531.66,482.00 C531.06,482.00 529.62,483.20 528.45,484.66 C526.04,487.68 524.89,487.32 522.31,482.73 C520.65,479.76 520.48,475.74 520.21,433.37 C519.96,392.10 520.09,387.18 521.50,386.64 C522.98,386.07 538.81,376.74 596.00,342.75 C608.92,335.07 623.78,326.27 629.00,323.21 C634.22,320.14 639.11,317.08 639.86,316.42 C641.29,315.15 622.85,308.85 564.73,290.87 C567.02,291.35 568.77,291.42 570.18,291.13 C574.13,290.31 578.00,290.77 578.00,292.07 C578.00,293.99 581.78,292.89 585.82,289.79 C588.12,288.02 590.00,286.19 590.00,285.71 C590.00,284.02 592.56,282.50 595.85,282.23 C597.69,282.09 600.15,281.45 601.33,280.83 C603.41,279.71 603.42,279.67 601.48,278.94 C600.39,278.53 597.92,278.39 596.00,278.64 C593.43,278.97 592.90,278.82 594.00,278.08 C595.31,277.20 595.28,276.68 593.70,273.79 C593.46,273.35 593.30,272.99 593.10,272.65 C592.21,271.18 590.51,270.20 578.52,266.24 ZM 376.40 470.00 C382.09,470.00 382.85,469.78 382.30,468.34 C381.86,467.20 382.04,466.91 382.85,467.41 C383.74,467.96 383.88,467.10 383.40,464.08 C383.00,461.62 383.18,459.49 383.85,458.68 C384.48,457.92 384.25,450.97 382.95,433.70 C389.34,510.52 392.16,541.53 392.75,542.01 C393.16,542.34 396.65,545.08 400.50,548.11 C425.52,567.78 430.85,572.18 431.37,573.52 C431.68,574.34 432.50,574.90 433.19,574.76 C433.93,574.60 434.46,575.64 434.50,577.37 C434.54,579.18 435.56,581.09 437.28,582.57 C440.59,585.41 440.79,587.07 437.75,586.36 C431.60,584.94 430.66,585.14 427.13,588.67 C423.80,592.00 420.02,593.69 418.75,592.42 C418.44,592.10 417.43,591.74 416.51,591.60 C415.59,591.47 414.54,590.88 414.17,590.30 C413.80,589.71 411.61,588.60 409.30,587.82 C406.75,586.96 397.32,580.25 385.21,570.67 L 365.31 554.92 L 364.14 539.71 C363.49,531.35 361.98,513.25 360.79,499.50 C359.80,488.06 358.99,476.64 358.78,471.39 C359.15,470.16 359.53,470.40 361.18,472.50 L 363.21 475.08 L 366.54 472.54 C369.32,470.42 370.94,470.00 376.40,470.00 ZM 578.00 441.94 C578.00,442.52 577.55,443.00 577.00,443.00 C576.41,443.00 576.00,439.32 576.00,433.96 C576.00,426.32 576.33,424.48 578.12,422.05 C579.35,420.38 579.91,418.67 579.46,417.94 C578.99,417.17 579.10,416.94 579.76,417.35 C580.35,417.72 580.98,417.65 581.16,417.20 C581.35,416.75 586.58,413.39 592.78,409.74 C598.99,406.08 603.76,403.59 603.38,404.20 C602.90,404.98 603.90,405.11 606.74,404.66 C609.70,404.18 610.93,404.38 611.31,405.37 C611.87,406.83 611.32,414.67 610.58,415.87 C609.60,417.45 612.00,419.33 614.99,419.33 C617.38,419.33 617.76,419.55 616.56,420.23 C615.68,420.72 615.18,421.48 615.45,421.92 C615.97,422.76 608.10,426.68 606.76,426.25 C606.33,426.11 606.52,426.87 607.19,427.93 C607.86,429.00 609.32,430.17 610.45,430.54 C612.33,431.16 612.35,431.25 610.68,431.69 C609.48,432.01 607.44,430.77 604.70,428.06 C601.29,424.68 600.06,424.05 597.87,424.53 C596.40,424.85 594.90,424.64 594.54,424.06 C593.52,422.41 590.01,422.81 589.30,424.66 C588.87,425.77 589.60,427.06 591.48,428.56 C594.87,431.27 594.32,434.00 590.38,434.00 C588.52,434.00 586.53,435.26 583.91,438.10 C581.83,440.35 579.65,441.90 579.06,441.54 C578.48,441.18 578.00,441.36 578.00,441.94 ZM 510.66 356.25 C512.50,354.19 514.00,352.25 514.00,351.94 C514.00,350.94 520.98,348.00 523.33,348.00 C524.58,348.00 526.10,348.50 526.71,349.11 C527.52,349.92 528.11,349.65 528.93,348.13 C529.86,346.40 529.79,346.14 528.52,346.63 C526.89,347.26 526.48,345.36 527.81,343.27 C528.39,342.36 529.05,342.58 530.34,344.09 C531.30,345.21 532.86,345.98 533.80,345.80 C536.03,345.38 536.52,341.67 534.55,340.04 C532.30,338.17 532.65,334.47 535.25,332.75 C537.03,331.57 537.50,330.31 537.50,326.72 C537.50,324.23 537.87,322.42 538.33,322.71 C538.74,322.96 538.55,322.14 537.93,320.84 C538.04,321.04 538.14,321.25 538.25,321.45 C539.62,324.12 540.49,328.10 540.79,333.14 C541.18,339.74 540.91,341.52 538.78,346.14 C535.46,353.37 532.16,357.05 525.97,360.42 C516.74,365.44 506.17,364.80 495.55,358.58 C494.65,358.05 493.71,357.37 492.80,356.61 C492.83,356.60 492.85,356.59 492.88,356.58 C493.32,356.30 495.90,356.94 498.59,357.99 C505.51,360.69 506.89,360.49 510.66,356.25 ZM 653.57 376.88 C652.27,378.98 651.24,378.00 650.14,373.63 C649.53,371.22 648.79,368.61 648.48,367.82 C648.18,367.03 649.03,364.76 650.38,362.77 C651.73,360.79 652.67,359.00 652.47,358.81 C652.28,358.61 653.91,358.55 656.10,358.67 C659.38,358.86 660.27,358.50 661.11,356.66 C661.78,355.18 663.13,354.34 665.07,354.19 C668.08,353.96 668.63,355.06 668.15,360.38 C668.05,361.42 668.52,362.93 669.19,363.73 C671.02,365.93 671.07,368.26 669.35,370.17 C668.50,371.11 668.07,372.31 668.41,372.85 C668.74,373.38 668.72,374.56 668.38,375.46 C667.84,376.85 666.72,377.00 661.01,376.43 C656.45,375.98 654.04,376.13 653.57,376.88 ZM 605.42 411.66 C605.91,412.93 606.31,412.99 607.51,411.99 C609.41,410.41 609.44,408.00 607.56,408.00 C605.67,408.00 604.67,409.70 605.42,411.66 ZM 490.98 354.48 C490.28,353.64 489.91,352.76 490.15,352.52 C490.38,352.28 491.12,352.97 491.80,354.05 C493.25,356.37 492.76,356.63 490.98,354.48 ZM 524.24 308.16 C516.47,304.70 507.24,304.31 499.88,308.06 C507.45,304.20 516.52,304.56 524.24,308.16 ZM 358.74 467.73 C358.71,465.26 358.45,463.25 358.10,463.01 C357.70,462.73 356.35,450.12 355.11,435.00 C356.35,450.12 357.75,462.77 358.24,463.09 C358.67,463.38 358.87,465.39 358.74,467.73 ZM 548.78 285.95 C542.15,283.89 534.59,281.50 529.17,279.75 C534.63,281.43 541.24,283.52 548.78,285.95 ZM 481.35 374.29 C481.32,374.30 481.29,374.32 481.26,374.34 C480.68,374.70 479.94,374.29 479.61,373.43 C479.61,373.42 479.60,373.41 479.60,373.40 C480.10,373.63 480.68,373.93 481.35,374.29 ZM 486.54 347.98 C486.37,348.66 487.53,350.74 488.91,352.68 C487.28,350.69 486.25,348.84 486.54,347.98 ZM 403.41 360.27 L 400.69 358.71 C401.68,359.27 402.43,359.49 403.01,359.91 C403.16,360.02 403.29,360.13 403.41,360.27 ZM 347.41 344.53 C347.91,343.66 349.30,344.20 352.15,346.07 C349.27,344.26 347.91,343.75 347.41,344.53 ZM 512.21 275.00 C510.24,275.08 501.91,277.49 479.19,284.71 C502.03,277.45 510.47,275.00 512.14,275.00 C512.17,275.00 512.19,275.00 512.21,275.00 ZM 371.81 358.38 L 368.69 356.51 C366.21,355.01 363.19,353.15 360.46,351.43 C362.58,352.75 364.87,354.16 367.00,355.46 C368.74,356.51 370.38,357.51 371.81,358.38 ZM 477.12 372.45 C477.04,372.34 477.00,372.19 477.00,372.00 C477.00,371.39 476.55,371.16 476.00,371.50 C476.55,371.16 477.00,371.36 477.00,371.94 C477.00,372.14 477.04,372.31 477.12,372.45 Z" fill="rgb(53,117,174)"/>
<path d="M 578.00 441.94 C578.00,441.36 578.48,441.18 579.06,441.54 C579.65,441.90 581.83,440.35 583.91,438.10 C586.53,435.26 588.52,434.00 590.38,434.00 C594.32,434.00 594.87,431.27 591.48,428.56 C589.60,427.06 588.87,425.77 589.30,424.66 C590.01,422.81 593.52,422.41 594.54,424.06 C594.90,424.64 596.40,424.85 597.87,424.53 C600.06,424.05 601.29,424.68 604.70,428.06 C607.44,430.77 609.48,432.01 610.68,431.69 C612.35,431.25 612.33,431.16 610.45,430.54 C609.32,430.17 607.86,429.00 607.19,427.93 C606.52,426.87 606.33,426.11 606.76,426.25 C608.10,426.68 615.97,422.76 615.45,421.92 C615.18,421.48 615.68,420.72 616.56,420.23 C617.56,419.66 617.46,419.42 616.00,419.35 C618.45,418.66 623.46,417.09 629.17,415.23 L 643.70 410.50 L 644.32 400.50 C644.67,395.00 645.49,384.06 646.16,376.19 L 647.38 361.88 L 652.94 358.38 C667.36,349.31 676.27,343.95 676.46,344.21 C676.57,344.37 675.43,358.90 673.92,376.50 C672.41,394.10 669.33,430.10 667.07,456.50 C664.82,482.90 662.34,511.70 661.58,520.50 C660.81,529.30 659.87,540.66 659.48,545.75 L 658.79 555.00 L 637.14 572.19 C611.28,592.74 595.48,605.20 570.00,625.16 C564.22,629.68 555.45,636.59 550.50,640.50 C545.55,644.42 537.73,650.52 533.12,654.06 C528.51,657.60 523.67,661.33 522.37,662.33 L 520.00 664.17 L 520.00 525.69 C520.00,475.49 520.03,443.22 520.15,422.56 C520.17,425.86 520.19,429.45 520.21,433.37 C520.48,475.74 520.65,479.76 522.31,482.73 C524.89,487.32 526.04,487.68 528.45,484.66 C529.62,483.20 531.06,482.00 531.66,482.00 C532.26,482.00 535.28,480.88 538.38,479.51 C543.84,477.10 544.00,476.91 544.00,473.08 C544.00,470.91 544.56,467.86 545.25,466.32 C546.33,463.88 546.57,465.79 547.00,480.42 C547.37,493.01 547.83,497.40 548.78,497.59 C549.48,497.73 549.59,497.62 549.03,497.34 C548.86,497.26 548.72,496.27 548.59,494.38 C548.76,496.24 548.98,497.00 549.25,497.00 C549.94,497.00 563.47,493.14 579.33,488.42 C595.19,483.69 608.34,480.00 608.55,480.22 C608.92,480.59 607.76,499.36 606.21,517.98 L 605.50 526.46 L 594.00 535.77 C578.44,548.38 576.38,550.00 575.91,550.00 C575.68,550.00 575.65,544.38 575.83,537.50 C576.08,528.17 575.85,525.00 574.95,525.00 C573.57,525.00 553.84,536.06 550.00,538.98 L 547.50 540.88 L 547.21 573.94 C547.02,596.26 547.26,607.00 547.96,607.00 C548.99,607.00 553.72,603.36 589.00,575.47 C599.17,567.42 612.98,556.57 619.67,551.35 C630.57,542.86 631.91,541.47 632.42,538.18 C632.73,536.16 634.11,520.78 635.50,504.00 C636.88,487.23 638.44,469.45 638.96,464.50 C641.15,443.81 641.26,441.00 639.91,441.00 C639.21,441.00 628.92,443.96 617.06,447.58 C605.20,451.19 591.36,455.42 586.30,456.96 C581.24,458.50 576.85,459.51 576.55,459.21 C576.25,458.91 576.00,449.84 576.00,439.05 L 576.00 419.43 L 579.25 417.55 C579.30,417.66 579.37,417.79 579.46,417.94 C579.91,418.67 579.35,420.38 578.12,422.05 C576.33,424.48 576.00,426.32 576.00,433.96 C576.00,439.32 576.41,443.00 577.00,443.00 C577.55,443.00 578.00,442.52 578.00,441.94 ZM 503.84 489.09 C503.82,500.17 503.79,512.47 503.77,526.11 L 503.50 663.73 L 498.35 659.61 C495.52,657.35 488.32,651.69 482.35,647.03 C463.92,632.64 448.21,620.21 430.57,606.07 C421.26,598.61 410.87,590.47 407.49,588.00 C404.11,585.53 393.24,577.07 383.33,569.21 L 366.69 556.01 L 385.21 570.67 C397.32,580.25 406.75,586.96 409.30,587.82 C411.61,588.60 413.80,589.71 414.17,590.30 C414.54,590.88 415.59,591.47 416.51,591.60 C417.43,591.74 418.44,592.10 418.75,592.42 C420.02,593.69 423.80,592.00 427.13,588.67 C430.66,585.14 431.60,584.94 437.75,586.36 C440.79,587.07 440.59,585.41 437.28,582.57 C435.56,581.09 434.54,579.18 434.50,577.37 C434.46,575.64 433.93,574.60 433.19,574.76 C432.50,574.90 431.68,574.34 431.37,573.52 C430.94,572.40 427.18,569.18 411.58,556.84 C417.30,561.34 424.05,566.64 431.50,572.48 C444.70,582.83 457.52,592.92 460.00,594.91 C467.87,601.24 475.66,607.00 476.34,607.00 C476.70,607.00 476.98,593.39 476.96,576.75 L 476.93 546.50 L 470.32 542.50 C467.68,540.90 463.62,538.37 460.04,536.11 C460.51,536.33 460.72,536.36 460.59,536.14 C460.15,535.43 460.46,535.24 461.44,535.62 C462.29,535.94 462.76,536.58 462.48,537.03 C462.20,537.49 463.24,537.70 464.79,537.50 C466.34,537.30 468.20,537.51 468.92,537.95 C470.89,539.17 474.12,537.97 473.82,536.12 C473.34,533.24 475.03,532.00 479.44,532.00 C482.06,532.00 484.25,531.41 485.00,530.50 C485.68,529.67 486.80,529.00 487.49,529.00 C488.17,529.00 489.84,528.13 491.20,527.06 C493.41,525.32 493.95,525.26 496.37,526.52 C498.93,527.84 499.13,527.78 500.04,525.40 C500.57,524.01 501.02,521.44 501.04,519.68 C501.05,517.93 501.71,515.38 502.50,514.00 C503.29,512.61 503.67,507.51 503.84,489.09 ZM 653.57 376.88 C654.04,376.13 656.45,375.98 661.01,376.43 C666.72,377.00 667.84,376.85 668.38,375.46 C668.72,374.56 668.74,373.38 668.41,372.85 C668.07,372.31 668.50,371.11 669.35,370.17 C671.07,368.26 671.02,365.93 669.19,363.73 C668.52,362.93 668.05,361.42 668.15,360.38 C668.63,355.06 668.08,353.96 665.07,354.19 C663.13,354.34 661.78,355.18 661.11,356.66 C660.27,358.50 659.38,358.86 656.10,358.67 C653.91,358.55 652.28,358.61 652.47,358.81 C652.67,359.00 651.73,360.79 650.38,362.77 C649.03,364.76 648.18,367.03 648.48,367.82 C648.79,368.61 649.53,371.22 650.14,373.63 C651.24,378.00 652.27,378.98 653.57,376.88 ZM 597.74 406.89 C600.52,405.29 603.19,403.74 605.33,402.51 C610.74,399.38 615.40,397.07 615.70,397.37 C616.00,397.67 615.79,402.77 615.24,408.71 C614.77,413.69 614.44,417.98 614.41,419.31 C611.70,419.09 609.67,417.35 610.58,415.87 C611.32,414.67 611.87,406.83 611.31,405.37 C610.93,404.38 609.70,404.18 606.74,404.66 C603.90,405.11 602.90,404.98 603.38,404.20 C603.65,403.76 601.32,404.89 597.74,406.89 ZM 605.42 411.66 C604.67,409.70 605.67,408.00 607.56,408.00 C609.44,408.00 609.41,410.41 607.51,411.99 C606.31,412.99 605.91,412.93 605.42,411.66 ZM 650.26 342.27 C662.07,335.04 662.89,334.33 662.96,333.55 C662.97,333.47 662.97,333.38 662.97,333.29 C662.99,332.62 663.87,331.60 664.93,331.04 C667.45,329.69 668.29,329.72 667.41,331.15 C667.02,331.78 668.68,331.08 671.10,329.61 C673.35,328.24 675.75,326.78 676.67,326.23 C674.72,327.45 670.63,329.95 666.00,332.74 C662.84,334.64 657.05,338.15 650.26,342.27 ZM 579.68 417.30 L 585.75 413.81 C587.49,412.80 589.60,411.59 591.83,410.30 C586.05,413.73 581.34,416.77 581.16,417.20 C580.98,417.65 580.35,417.72 579.76,417.35 C579.73,417.33 579.71,417.32 579.68,417.30 ZM 676.91 326.08 C677.71,325.44 678.54,321.94 679.06,316.91 C679.53,312.28 680.14,306.40 680.41,303.83 C680.14,306.40 679.54,312.24 679.07,316.81 C678.59,321.38 678.05,325.28 677.85,325.46 C677.81,325.51 677.47,325.72 676.91,326.08 ZM 436.50 540.87 C431.99,537.28 426.95,533.19 422.75,529.67 C422.36,529.34 421.99,529.04 421.66,528.75 L 427.25 533.31 C430.15,535.67 433.55,538.46 436.50,540.87 ZM 448.71 539.50 C449.03,545.28 448.98,550.00 448.60,550.00 C448.57,550.00 448.52,549.98 448.44,549.94 C448.92,549.73 449.04,545.35 448.71,539.50 ZM 493.50 381.36 C496.27,383.02 498.79,384.59 500.46,385.73 L 498.75 384.64 C496.97,383.51 495.21,382.40 493.50,381.36 ZM 452.21 531.14 C450.29,529.96 448.91,529.14 448.58,529.02 C448.59,529.01 448.60,529.00 448.61,529.00 C448.80,529.00 450.24,529.87 452.21,531.14 Z" fill="rgb(73,72,169)"/>
<path d="M 0.00 512.00 L 0.00 0.00 L 512.00 0.00 L 1024.00 0.00 L 1024.00 512.00 L 1024.00 1024.00 L 512.00 1024.00 L 0.00 1024.00 L 0.00 512.00 ZM 502.11 386.92 C498.89,384.26 478.69,372.48 477.82,372.75 C477.37,372.89 477.00,372.52 477.00,371.94 C477.00,371.36 476.55,371.16 476.00,371.50 C475.45,371.84 475.00,371.68 475.00,371.15 C475.00,370.62 471.29,368.05 466.75,365.42 C462.21,362.80 451.98,356.76 444.00,351.99 C436.02,347.21 422.75,339.34 414.50,334.49 C386.66,318.13 384.01,316.50 384.01,315.79 C384.00,315.39 390.64,312.99 398.75,310.45 C406.86,307.90 427.23,301.40 444.00,295.99 C494.73,279.63 509.80,275.00 512.31,275.00 C513.62,275.00 519.38,276.54 525.10,278.43 C530.82,280.32 542.92,284.15 552.00,286.94 C620.18,307.95 641.38,315.06 639.86,316.42 C639.11,317.08 634.22,320.14 629.00,323.21 C623.78,326.27 608.92,335.07 596.00,342.75 C539.01,376.63 522.98,386.07 521.54,386.62 C520.16,387.15 520.00,401.89 520.00,525.69 L 520.00 664.17 L 522.37 662.33 C523.67,661.33 528.51,657.60 533.12,654.06 C537.73,650.52 545.55,644.42 550.50,640.50 C555.45,636.59 564.22,629.68 570.00,625.16 C595.48,605.20 611.28,592.74 637.14,572.19 L 658.79 555.00 L 659.48 545.75 C659.87,540.66 660.81,529.30 661.58,520.50 C662.34,511.70 664.82,482.90 667.07,456.50 C669.33,430.10 672.41,394.10 673.92,376.50 C675.43,358.90 676.57,344.37 676.46,344.21 C676.27,343.95 667.36,349.31 652.94,358.38 L 647.38 361.88 L 646.16 376.19 C645.49,384.06 644.67,395.00 644.32,400.50 L 643.70 410.50 L 629.17 415.23 C621.17,417.84 614.54,419.86 614.43,419.73 C614.32,419.60 614.68,414.64 615.24,408.71 C615.79,402.77 616.00,397.67 615.70,397.37 C615.40,397.07 610.74,399.38 605.33,402.51 C599.92,405.63 591.11,410.71 585.75,413.81 L 576.00 419.43 L 576.00 439.05 C576.00,449.84 576.25,458.91 576.55,459.21 C576.85,459.51 581.24,458.50 586.30,456.96 C591.36,455.42 605.20,451.19 617.06,447.58 C628.92,443.96 639.21,441.00 639.91,441.00 C641.26,441.00 641.15,443.81 638.96,464.50 C638.44,469.45 636.88,487.23 635.50,504.00 C634.11,520.78 632.73,536.16 632.42,538.18 C631.91,541.47 630.57,542.86 619.67,551.35 C612.98,556.57 599.17,567.42 589.00,575.47 C553.72,603.36 548.99,607.00 547.96,607.00 C547.26,607.00 547.02,596.26 547.21,573.94 L 547.50 540.88 L 550.00 538.98 C553.84,536.06 573.57,525.00 574.95,525.00 C575.85,525.00 576.08,528.17 575.83,537.50 C575.65,544.38 575.68,550.00 575.91,550.00 C576.38,550.00 578.44,548.38 594.00,535.77 L 605.50 526.46 L 606.21 517.98 C607.76,499.36 608.92,480.59 608.55,480.22 C608.34,480.00 595.19,483.69 579.33,488.42 C563.47,493.14 549.94,497.00 549.25,497.00 C548.27,497.00 548.00,486.98 548.00,450.25 L 548.00 403.50 L 560.75 396.04 C580.08,384.74 599.81,372.93 628.50,355.49 C642.80,346.79 659.67,336.55 666.00,332.74 C672.33,328.92 677.66,325.65 677.85,325.46 C678.05,325.28 678.59,321.38 679.07,316.81 C679.54,312.24 680.14,306.40 680.41,303.83 L 680.89 299.17 L 671.69 296.19 C662.79,293.30 641.79,286.55 585.50,268.48 C570.65,263.71 548.04,256.50 535.25,252.45 L 512.00 245.09 L 503.25 247.95 C498.44,249.53 479.42,255.61 461.00,261.47 C442.58,267.33 420.08,274.53 411.00,277.47 C388.85,284.64 348.07,297.68 345.15,298.52 C343.04,299.13 342.86,299.62 343.36,303.35 C343.66,305.63 344.20,311.36 344.56,316.07 L 345.21 324.64 L 349.35 327.20 C351.63,328.60 359.35,333.35 366.50,337.74 C373.65,342.14 383.33,348.11 388.00,351.03 C392.67,353.94 398.37,357.39 400.65,358.69 L 404.80 361.06 L 405.46 369.28 C407.80,398.50 410.11,424.70 410.98,432.00 C411.54,436.67 412.66,449.05 413.48,459.50 C414.30,469.95 415.65,486.81 416.48,496.98 C417.32,507.14 418.00,517.76 418.00,520.57 C418.00,525.45 418.22,525.87 422.75,529.67 C432.87,538.16 447.93,550.00 448.60,550.00 C448.98,550.00 449.03,545.28 448.71,539.50 C448.38,533.72 448.30,529.00 448.53,529.00 C448.75,529.00 452.26,531.14 456.33,533.75 C460.39,536.36 466.69,540.30 470.32,542.50 L 476.93 546.50 L 476.96 576.75 C476.98,593.39 476.70,607.00 476.34,607.00 C475.66,607.00 467.87,601.24 460.00,594.91 C457.52,592.92 444.70,582.83 431.50,572.48 C410.70,556.17 395.31,544.06 392.75,542.01 C392.07,541.46 388.50,501.07 380.01,398.09 C378.36,378.06 376.89,361.57 376.75,361.44 C376.61,361.31 372.23,358.62 367.00,355.46 C361.77,352.29 355.62,348.42 353.32,346.85 C347.68,343.01 346.70,343.15 347.38,347.75 C347.69,349.81 348.43,357.58 349.02,365.00 C349.62,372.42 350.73,385.02 351.48,393.00 C352.24,400.98 353.87,419.88 355.11,435.00 C356.35,450.12 357.70,462.73 358.10,463.01 C358.51,463.29 358.79,465.99 358.73,469.01 C358.67,472.03 359.60,485.75 360.79,499.50 C361.98,513.25 363.49,531.34 364.14,539.71 L 365.31 554.92 L 383.33 569.21 C393.24,577.07 404.11,585.53 407.49,588.00 C410.87,590.47 421.26,598.61 430.57,606.07 C448.21,620.21 463.92,632.64 482.35,647.03 C488.32,651.69 495.52,657.35 498.35,659.61 L 503.50 663.73 L 503.77 526.11 C504.03,391.43 503.99,388.47 502.11,386.92 ZM 525.97 360.42 C532.16,357.05 535.46,353.37 538.78,346.14 C540.91,341.52 541.18,339.74 540.79,333.14 C540.49,328.10 539.62,324.12 538.25,321.45 C531.08,307.53 513.17,301.28 499.88,308.06 C489.56,313.33 483.92,321.59 483.22,332.47 C482.75,339.74 484.21,347.00 486.14,347.00 C486.68,347.00 486.89,347.37 486.60,347.83 C485.62,349.42 491.05,355.94 495.55,358.58 C506.17,364.80 516.74,365.44 525.97,360.42 Z" fill="rgb(252,252,252)"/>
</g>
</svg>
